<svg width="361" height="824" viewBox="0 0 361 824" fill="none" xmlns="http://www.w3.org/2000/svg">
<path d="M146.42 31.5547C153.6 40.7443 130.911 -45.1217 118.851 53.0938C105.291 51.4287 95.6473 39.0858 97.3123 25.5251C98.9774 11.9643 111.32 2.32098 124.881 3.98603C138.442 5.65108 139.24 22.3652 146.42 31.5547Z" fill="#666668"/>
<path d="M132.956 141.208C140.136 150.397 117.447 64.5314 105.388 162.747C91.8269 161.082 82.1835 148.739 83.8486 135.178C85.5136 121.617 97.8566 111.974 111.417 113.639C124.978 115.304 125.777 132.018 132.956 141.208Z" fill="#666668"/>
<path d="M119.493 250.861C126.672 260.05 103.983 174.184 91.924 272.4C78.3633 270.735 68.7199 258.392 70.3849 244.831C72.05 231.27 84.3929 221.627 97.9537 223.292C111.514 224.957 112.313 241.671 119.493 250.861Z" fill="#666668"/>
<path d="M106.029 360.514C113.209 369.704 90.5196 283.838 78.4602 382.053C64.8995 380.388 55.2561 368.045 56.9212 354.484C58.5862 340.924 70.9292 331.28 84.4899 332.945C98.0507 334.61 98.8493 351.324 106.029 360.514Z" fill="#666668"/>
<path d="M92.5652 470.167C99.7449 479.357 77.0558 393.491 64.9965 491.706C51.4358 490.041 41.7924 477.698 43.4575 464.137C45.1225 450.577 57.4654 440.933 71.0262 442.598C84.5869 444.263 85.3855 460.977 92.5652 470.167Z" fill="#666668"/>
<path d="M79.1016 579.82C86.2813 589.01 63.5922 503.144 51.5329 601.359C37.9721 599.694 28.3288 587.351 29.9938 573.79C31.6589 560.23 44.0018 550.586 57.5625 552.251C71.1233 553.916 71.9219 570.631 79.1016 579.82Z" fill="#666668"/>
<path d="M65.6378 689.473C72.8175 698.663 50.1285 612.797 38.0691 711.012C24.5084 709.347 14.865 697.004 16.5301 683.444C18.1951 669.883 30.5381 660.239 44.0988 661.904C57.6595 663.57 58.4582 680.284 65.6378 689.473Z" fill="#666668"/>
<path d="M216.42 31.5547C223.6 40.7443 200.911 -45.1217 188.851 53.0938C175.291 51.4287 165.647 39.0858 167.312 25.5251C168.977 11.9643 181.32 2.32098 194.881 3.98603C208.442 5.65108 209.24 22.3652 216.42 31.5547Z" fill="#666668"/>
<path d="M202.956 141.208C210.136 150.397 187.447 64.5314 175.388 162.747C161.827 161.082 152.184 148.739 153.849 135.178C155.514 121.617 167.857 111.974 181.417 113.639C194.978 115.304 195.777 132.018 202.956 141.208Z" fill="#666668"/>
<path d="M189.493 250.861C196.672 260.05 173.983 174.184 161.924 272.4C148.363 270.735 138.72 258.392 140.385 244.831C142.05 231.27 154.393 221.627 167.954 223.292C181.514 224.957 182.313 241.671 189.493 250.861Z" fill="#666668"/>
<path d="M176.029 360.514C183.209 369.704 160.52 283.838 148.46 382.053C134.9 380.388 125.256 368.045 126.921 354.484C128.586 340.924 140.929 331.28 154.49 332.945C168.051 334.61 168.849 351.324 176.029 360.514Z" fill="#666668"/>
<path d="M162.565 470.167C169.745 479.357 147.056 393.491 134.996 491.706C121.436 490.041 111.792 477.698 113.457 464.137C115.123 450.577 127.465 440.933 141.026 442.598C154.587 444.263 155.386 460.977 162.565 470.167Z" fill="#666668"/>
<path d="M149.102 579.82C156.281 589.01 133.592 503.144 121.533 601.359C107.972 599.694 98.3288 587.351 99.9938 573.79C101.659 560.23 114.002 550.586 127.563 552.251C141.123 553.916 141.922 570.631 149.102 579.82Z" fill="#666668"/>
<path d="M135.638 689.473C142.818 698.663 120.128 612.797 108.069 711.012C94.5084 709.347 84.865 697.004 86.5301 683.444C88.1951 669.883 100.538 660.239 114.099 661.904C127.66 663.57 128.458 680.284 135.638 689.473Z" fill="#666668"/>
<path d="M286.42 31.5547C293.6 40.7443 270.911 -45.1217 258.851 53.0938C245.291 51.4287 235.647 39.0858 237.312 25.5251C238.977 11.9643 251.32 2.32098 264.881 3.98603C278.442 5.65108 279.24 22.3652 286.42 31.5547Z" fill="#666668"/>
<path d="M272.956 141.208C280.136 150.397 257.447 64.5314 245.388 162.747C231.827 161.082 222.184 148.739 223.849 135.178C225.514 121.617 237.857 111.974 251.417 113.639C264.978 115.304 265.777 132.018 272.956 141.208Z" fill="#666668"/>
<path d="M259.493 250.861C266.672 260.05 243.983 174.184 231.924 272.4C218.363 270.735 208.72 258.392 210.385 244.831C212.05 231.27 224.393 221.627 237.954 223.292C251.514 224.957 252.313 241.671 259.493 250.861Z" fill="#666668"/>
<path d="M246.029 360.514C253.209 369.704 230.52 283.838 218.46 382.053C204.9 380.388 195.256 368.045 196.921 354.484C198.586 340.924 210.929 331.28 224.49 332.945C238.051 334.61 238.849 351.324 246.029 360.514Z" fill="#666668"/>
<path d="M232.565 470.167C239.745 479.357 217.056 393.491 204.996 491.706C191.436 490.041 181.792 477.698 183.457 464.137C185.123 450.577 197.465 440.933 211.026 442.598C224.587 444.263 225.386 460.977 232.565 470.167Z" fill="#666668"/>
<path d="M219.102 579.82C226.281 589.01 203.592 503.144 191.533 601.359C177.972 599.694 168.329 587.351 169.994 573.79C171.659 560.23 184.002 550.586 197.563 552.251C211.123 553.916 211.922 570.631 219.102 579.82Z" fill="#666668"/>
<path d="M205.638 689.473C212.818 698.663 190.128 612.797 178.069 711.012C164.508 709.347 154.865 697.004 156.53 683.444C158.195 669.883 170.538 660.239 184.099 661.904C197.66 663.57 198.458 680.284 205.638 689.473Z" fill="#666668"/>
<path d="M356.42 31.5547C363.6 40.7443 340.911 -45.1217 328.851 53.0938C315.291 51.4287 305.647 39.0858 307.312 25.5251C308.977 11.9643 321.32 2.32098 334.881 3.98603C348.442 5.65108 349.24 22.3652 356.42 31.5547Z" fill="#666668"/>
<path d="M342.956 141.208C350.136 150.397 327.447 64.5314 315.388 162.747C301.827 161.082 292.184 148.739 293.849 135.178C295.514 121.617 307.857 111.974 321.417 113.639C334.978 115.304 335.777 132.018 342.956 141.208Z" fill="#666668"/>
<path d="M329.493 250.861C336.672 260.05 313.983 174.184 301.924 272.4C288.363 270.735 278.72 258.392 280.385 244.831C282.05 231.27 294.393 221.627 307.954 223.292C321.514 224.957 322.313 241.671 329.493 250.861Z" fill="#666668"/>
<path d="M316.029 360.514C323.209 369.704 300.52 283.838 288.46 382.053C274.9 380.388 265.256 368.045 266.921 354.484C268.586 340.924 280.929 331.28 294.49 332.945C308.051 334.61 308.849 351.324 316.029 360.514Z" fill="#666668"/>
<path d="M302.565 470.167C309.745 479.357 287.056 393.491 274.997 491.706C261.436 490.041 251.792 477.698 253.458 464.137C255.123 450.577 267.465 440.933 281.026 442.598C294.587 444.263 295.386 460.977 302.565 470.167Z" fill="#666668"/>
<path d="M289.102 579.82C296.281 589.01 273.592 503.144 261.533 601.359C247.972 599.694 238.329 587.351 239.994 573.79C241.659 560.23 254.002 550.586 267.562 552.251C281.123 553.916 281.922 570.631 289.102 579.82Z" fill="#666668"/>
<path d="M275.638 689.473C282.818 698.663 260.128 612.797 248.069 711.012C234.508 709.347 224.865 697.004 226.53 683.444C228.195 669.883 240.538 660.239 254.099 661.904C267.66 663.57 268.458 680.284 275.638 689.473Z" fill="#666668"/>
</svg>
