<svg width="226" height="233" viewBox="0 0 226 233" fill="none" xmlns="http://www.w3.org/2000/svg">
<g filter="url(#filter0_d_106_2)">
<path d="M99.9298 6.06041C106.387 -0.76791 113.667 -1.93894 119.087 3.12231C141.425 23.9828 200.154 78.827 215.78 93.4192C223.195 100.344 224.216 115.106 217.568 122.136C202.694 137.864 148.717 193.659 127.058 216.535C127.425 215.717 127.791 214.893 128.155 214.063C134.071 200.52 136.086 183.137 134.854 168.511C133.469 152.369 125.312 139.416 113.952 128.109C102.975 117.146 94.0493 105.271 84.6795 92.9938C76.6889 78.7478 72.2454 67.0295 72.3386 50.3743C72.3702 44.6539 72.9283 39.0231 73.9707 33.5101C84.095 22.8045 93.3047 13.066 99.9298 6.06047V6.06041Z" fill="url(#paint0_linear_106_2)"/>
<path d="M9.62771 104.291C19.66 93.6824 49.7136 61.903 75.141 35.0156C74.4301 39.6663 74.0514 44.3902 74.0243 49.1671C73.9275 66.4626 78.5575 78.7896 86.8944 93.585C96.4493 106.167 105.622 118.313 116.849 129.526C127.98 140.606 136.074 153.255 137.389 169.092C138.611 183.527 136.652 200.83 130.777 214.186C129.772 216.48 128.752 218.729 127.715 220.945C121.767 224.669 111.951 226.788 105.391 220.662C79.2315 196.233 21.8173 142.616 7.91461 129.633C1.9775 124.089 2.9887 111.311 9.62777 104.291L9.62771 104.291Z" fill="url(#paint1_linear_106_2)"/>
</g>
<g filter="url(#filter1_d_106_2)">
<path d="M148.72 107.9L164.53 160.94L155.86 166.72C152.687 166.153 149.287 164.907 145.66 162.98C142.033 161.053 138.747 158.617 135.8 155.67L133.25 130.68L94.15 130.51L83.95 164H73.92C71.54 161.733 69.3867 159.07 67.46 156.01C65.5333 152.837 64.0033 149.21 62.87 145.13L83.1 106.71L98.74 63.19L80.89 64.38C79.3033 61.66 78.3967 58.4867 78.17 54.86C78.0567 51.2333 78.3967 48.0033 79.19 45.17H114.04C116.193 46.3033 118.573 47.9467 121.18 50.1C123.9 52.14 126.507 54.4633 129 57.07C131.607 59.5633 133.817 62.17 135.63 64.89L148.72 107.9ZM99.76 112.66L131.21 112.32L131.04 110.45L116.25 64.21L99.76 112.66Z" fill="white"/>
</g>
<defs>
<filter id="filter0_d_106_2" x="0" y="0" width="226" height="232.529" filterUnits="userSpaceOnUse" color-interpolation-filters="sRGB">
<feFlood flood-opacity="0" result="BackgroundImageFix"/>
<feColorMatrix in="SourceAlpha" type="matrix" values="0 0 0 0 0 0 0 0 0 0 0 0 0 0 0 0 0 0 127 0" result="hardAlpha"/>
<feOffset dy="4"/>
<feGaussianBlur stdDeviation="2"/>
<feComposite in2="hardAlpha" operator="out"/>
<feColorMatrix type="matrix" values="0 0 0 0 0 0 0 0 0 0 0 0 0 0 0 0 0 0 0.25 0"/>
<feBlend mode="normal" in2="BackgroundImageFix" result="effect1_dropShadow_106_2"/>
<feBlend mode="normal" in="SourceGraphic" in2="effect1_dropShadow_106_2" result="shape"/>
</filter>
<filter id="filter1_d_106_2" x="58.87" y="45.17" width="109.66" height="129.55" filterUnits="userSpaceOnUse" color-interpolation-filters="sRGB">
<feFlood flood-opacity="0" result="BackgroundImageFix"/>
<feColorMatrix in="SourceAlpha" type="matrix" values="0 0 0 0 0 0 0 0 0 0 0 0 0 0 0 0 0 0 127 0" result="hardAlpha"/>
<feOffset dy="4"/>
<feGaussianBlur stdDeviation="2"/>
<feComposite in2="hardAlpha" operator="out"/>
<feColorMatrix type="matrix" values="0 0 0 0 0 0 0 0 0 0 0 0 0 0 0 0 0 0 0.25 0"/>
<feBlend mode="normal" in2="BackgroundImageFix" result="effect1_dropShadow_106_2"/>
<feBlend mode="normal" in="SourceGraphic" in2="effect1_dropShadow_106_2" result="shape"/>
</filter>
<linearGradient id="paint0_linear_106_2" x1="72.3372" y1="108.268" x2="222" y2="108.268" gradientUnits="userSpaceOnUse">
<stop stop-color="#E0945E"/>
<stop offset="1" stop-color="#DB6B1A"/>
</linearGradient>
<linearGradient id="paint1_linear_106_2" x1="3.99993" y1="129.772" x2="137.736" y2="129.772" gradientUnits="userSpaceOnUse">
<stop stop-color="#913A0D"/>
<stop offset="1" stop-color="#5C3D27"/>
</linearGradient>
</defs>
</svg>